<svg xmlns="http://www.w3.org/2000/svg" version="1.1" xmlns:xlink="http://www.w3.org/1999/xlink" xmlns:svgjs="http://svgjs.dev/svgjs" viewBox="0 0 800 800"><defs><linearGradient x1="50%" y1="0%" x2="50%" y2="100%" id="ffflurry-grad" gradientTransform="rotate(270)"><stop stop-color="hsl(260, 84%, 10%)" stop-opacity="1" offset="0%"></stop><stop stop-color="hsl(216, 73%, 80%)" stop-opacity="1" offset="45%"></stop><stop stop-color="hsl(331, 37%, 68%)" stop-opacity="1" offset="100%"></stop></linearGradient></defs><rect width="100%" height="100%" fill="hsl(260, 84%, 10%)"></rect><g fill="url(#ffflurry-grad)"><rect width="283" height="3" x="-83.5" y="193.5" rx="1.5" transform="rotate(44, 58, 195)" opacity="0.18"></rect><rect width="56" height="3" x="112" y="380.5" rx="1.5" transform="rotate(44, 140, 382)" opacity="0.30"></rect><rect width="403" height="3" x="-9.5" y="53.5" rx="1.5" transform="rotate(44, 192, 55)" opacity="0.70"></rect><rect width="585" height="3" x="236.5" y="346.5" rx="1.5" transform="rotate(44, 529, 348)" opacity="0.37"></rect><rect width="477" height="3" x="523.5" y="116.5" rx="1.5" transform="rotate(44, 762, 118)" opacity="0.70"></rect><rect width="179" height="3" x="684.5" y="211.5" rx="1.5" transform="rotate(44, 774, 213)" opacity="0.70"></rect><rect width="461" height="3" x="334.5" y="606.5" rx="1.5" transform="rotate(44, 565, 608)" opacity="0.84"></rect><rect width="208" height="3" x="-11" y="22.5" rx="1.5" transform="rotate(44, 93, 24)" opacity="0.35"></rect><rect width="111" height="3" x="-2.5" y="293.5" rx="1.5" transform="rotate(44, 53, 295)" opacity="0.08"></rect><rect width="138" height="3" x="454" y="545.5" rx="1.5" transform="rotate(44, 523, 547)" opacity="0.35"></rect><rect width="565" height="3" x="206.5" y="257.5" rx="1.5" transform="rotate(44, 489, 259)" opacity="0.99"></rect><rect width="347" height="3" x="-141.5" y="99.5" rx="1.5" transform="rotate(44, 32, 101)" opacity="0.44"></rect><rect width="109" height="3" x="369.5" y="34.5" rx="1.5" transform="rotate(44, 424, 36)" opacity="0.97"></rect><rect width="314" height="3" x="487" y="147.5" rx="1.5" transform="rotate(44, 644, 149)" opacity="0.32"></rect><rect width="315" height="3" x="582.5" y="274.5" rx="1.5" transform="rotate(44, 740, 276)" opacity="0.93"></rect><rect width="383" height="3" x="63.5" y="261.5" rx="1.5" transform="rotate(44, 255, 263)" opacity="0.64"></rect><rect width="663" height="3" x="-186.5" y="712.5" rx="1.5" transform="rotate(44, 145, 714)" opacity="0.87"></rect><rect width="274" height="3" x="-49" y="443.5" rx="1.5" transform="rotate(44, 88, 445)" opacity="0.53"></rect><rect width="522" height="3" x="320" y="428.5" rx="1.5" transform="rotate(44, 581, 430)" opacity="0.62"></rect><rect width="219" height="3" x="239.5" y="735.5" rx="1.5" transform="rotate(44, 349, 737)" opacity="0.13"></rect><rect width="373" height="3" x="134.5" y="535.5" rx="1.5" transform="rotate(44, 321, 537)" opacity="1.00"></rect><rect width="304" height="3" x="-29" y="126.5" rx="1.5" transform="rotate(44, 123, 128)" opacity="0.88"></rect><rect width="397" height="3" x="473.5" y="623.5" rx="1.5" transform="rotate(44, 672, 625)" opacity="0.55"></rect><rect width="204" height="3" x="538" y="314.5" rx="1.5" transform="rotate(44, 640, 316)" opacity="0.95"></rect><rect width="299" height="3" x="115.5" y="352.5" rx="1.5" transform="rotate(44, 265, 354)" opacity="0.07"></rect><rect width="307" height="3" x="177.5" y="437.5" rx="1.5" transform="rotate(44, 331, 439)" opacity="0.09"></rect><rect width="143" height="3" x="551.5" y="562.5" rx="1.5" transform="rotate(44, 623, 564)" opacity="0.46"></rect><rect width="51" height="3" x="490.5" y="472.5" rx="1.5" transform="rotate(44, 516, 474)" opacity="0.77"></rect><rect width="270" height="3" x="51" y="574.5" rx="1.5" transform="rotate(44, 186, 576)" opacity="0.18"></rect><rect width="349" height="3" x="226.5" y="102.5" rx="1.5" transform="rotate(44, 401, 104)" opacity="0.65"></rect><rect width="341" height="3" x="488.5" y="510.5" rx="1.5" transform="rotate(44, 659, 512)" opacity="0.38"></rect><rect width="224" height="3" x="218" y="246.5" rx="1.5" transform="rotate(44, 330, 248)" opacity="0.52"></rect><rect width="408" height="3" x="484" y="55.5" rx="1.5" transform="rotate(44, 688, 57)" opacity="0.09"></rect><rect width="42" height="3" x="531" y="758.5" rx="1.5" transform="rotate(44, 552, 760)" opacity="0.66"></rect><rect width="597" height="3" x="307.5" y="65.5" rx="1.5" transform="rotate(44, 606, 67)" opacity="0.07"></rect><rect width="204" height="3" x="655" y="460.5" rx="1.5" transform="rotate(44, 757, 462)" opacity="0.49"></rect><rect width="466" height="3" x="220" y="734.5" rx="1.5" transform="rotate(44, 453, 736)" opacity="0.46"></rect><rect width="478" height="3" x="426" y="429.5" rx="1.5" transform="rotate(44, 665, 431)" opacity="0.91"></rect><rect width="605" height="3" x="-254.5" y="664.5" rx="1.5" transform="rotate(44, 48, 666)" opacity="0.23"></rect><rect width="427" height="3" x="-175.5" y="500.5" rx="1.5" transform="rotate(44, 38, 502)" opacity="0.44"></rect><rect width="202" height="3" x="133" y="456.5" rx="1.5" transform="rotate(44, 234, 458)" opacity="0.70"></rect><rect width="440" height="3" x="318" y="675.5" rx="1.5" transform="rotate(44, 538, 677)" opacity="0.41"></rect><rect width="493" height="3" x="83.5" y="73.5" rx="1.5" transform="rotate(44, 330, 75)" opacity="0.31"></rect><rect width="114" height="3" x="701" y="696.5" rx="1.5" transform="rotate(44, 758, 698)" opacity="0.51"></rect><rect width="391" height="3" x="231.5" y="468.5" rx="1.5" transform="rotate(44, 427, 470)" opacity="0.82"></rect><rect width="95" height="3" x="-20.5" y="25.5" rx="1.5" transform="rotate(44, 27, 27)" opacity="0.86"></rect><rect width="173" height="3" x="400.5" y="129.5" rx="1.5" transform="rotate(44, 487, 131)" opacity="0.95"></rect><rect width="191" height="3" x="-38.5" y="758.5" rx="1.5" transform="rotate(44, 57, 760)" opacity="0.73"></rect><rect width="263" height="3" x="113.5" y="635.5" rx="1.5" transform="rotate(44, 245, 637)" opacity="0.55"></rect><rect width="438" height="3" x="152" y="164.5" rx="1.5" transform="rotate(44, 371, 166)" opacity="0.68"></rect><rect width="173" height="3" x="91.5" y="186.5" rx="1.5" transform="rotate(44, 178, 188)" opacity="0.14"></rect><rect width="273" height="3" x="534.5" y="714.5" rx="1.5" transform="rotate(44, 671, 716)" opacity="0.84"></rect><rect width="130" height="3" x="45" y="66.5" rx="1.5" transform="rotate(44, 110, 68)" opacity="0.58"></rect><rect width="471" height="3" x="515.5" y="578.5" rx="1.5" transform="rotate(44, 751, 580)" opacity="0.87"></rect><rect width="375" height="3" x="157.5" y="623.5" rx="1.5" transform="rotate(44, 345, 625)" opacity="0.57"></rect><rect width="495" height="3" x="299.5" y="187.5" rx="1.5" transform="rotate(44, 547, 189)" opacity="0.42"></rect><rect width="161" height="3" x="183.5" y="160.5" rx="1.5" transform="rotate(44, 264, 162)" opacity="0.42"></rect><rect width="578" height="3" x="240" y="38.5" rx="1.5" transform="rotate(44, 529, 40)" opacity="0.19"></rect><rect width="413" height="3" x="417.5" y="234.5" rx="1.5" transform="rotate(44, 624, 236)" opacity="0.53"></rect><rect width="206" height="3" x="611" y="187.5" rx="1.5" transform="rotate(44, 714, 189)" opacity="0.97"></rect><rect width="46" height="3" x="10" y="392.5" rx="1.5" transform="rotate(44, 33, 394)" opacity="0.34"></rect><rect width="266" height="3" x="491" y="674.5" rx="1.5" transform="rotate(44, 624, 676)" opacity="0.13"></rect><rect width="95" height="3" x="20.5" y="581.5" rx="1.5" transform="rotate(44, 68, 583)" opacity="0.23"></rect><rect width="139" height="3" x="559.5" y="766.5" rx="1.5" transform="rotate(44, 629, 768)" opacity="0.96"></rect><rect width="132" height="3" x="693" y="32.5" rx="1.5" transform="rotate(44, 759, 34)" opacity="0.32"></rect><rect width="86" height="3" x="686" y="771.5" rx="1.5" transform="rotate(44, 729, 773)" opacity="0.55"></rect><rect width="205" height="3" x="304.5" y="247.5" rx="1.5" transform="rotate(44, 407, 249)" opacity="0.96"></rect><rect width="135" height="3" x="205.5" y="44.5" rx="1.5" transform="rotate(44, 273, 46)" opacity="0.90"></rect><rect width="328" height="3" x="607" y="349.5" rx="1.5" transform="rotate(44, 771, 351)" opacity="0.69"></rect><rect width="138" height="3" x="170" y="741.5" rx="1.5" transform="rotate(44, 239, 743)" opacity="0.08"></rect><rect width="105" height="3" x="345.5" y="351.5" rx="1.5" transform="rotate(44, 398, 353)" opacity="0.50"></rect><rect width="789" height="3" x="50.5" y="604.5" rx="1.5" transform="rotate(44, 445, 606)" opacity="0.27"></rect><rect width="376" height="3" x="516" y="364.5" rx="1.5" transform="rotate(44, 704, 366)" opacity="0.88"></rect><rect width="399" height="3" x="-38.5" y="288.5" rx="1.5" transform="rotate(44, 161, 290)" opacity="0.46"></rect><rect width="311" height="3" x="-9.5" y="495.5" rx="1.5" transform="rotate(44, 146, 497)" opacity="0.62"></rect></g></svg>