<svg xmlns="http://www.w3.org/2000/svg" version="1.1" xmlns:xlink="http://www.w3.org/1999/xlink" xmlns:svgjs="http://svgjs.dev/svgjs" viewBox="0 0 800 800" opacity="1"><defs><linearGradient x1="50%" y1="0%" x2="50%" y2="100%" id="nnneon-grad"><stop stop-color="hsl(251, 62%, 13%)" stop-opacity="1" offset="0%"></stop><stop stop-color="hsl(331, 87%, 61%)" stop-opacity="1" offset="100%"></stop></linearGradient><filter id="nnneon-filter" x="-100%" y="-100%" width="400%" height="400%" filterUnits="objectBoundingBox" primitiveUnits="userSpaceOnUse" color-interpolation-filters="sRGB">
	<feGaussianBlur stdDeviation="17 21" x="0%" y="0%" width="100%" height="100%" in="SourceGraphic" edgeMode="none" result="blur"></feGaussianBlur></filter><filter id="nnneon-filter2" x="-100%" y="-100%" width="400%" height="400%" filterUnits="objectBoundingBox" primitiveUnits="userSpaceOnUse" color-interpolation-filters="sRGB">
	<feGaussianBlur stdDeviation="13 17" x="0%" y="0%" width="100%" height="100%" in="SourceGraphic" edgeMode="none" result="blur"></feGaussianBlur></filter></defs><g stroke-width="13.5" stroke="url(#nnneon-grad)" fill="none"><path d="M383.21837557503545 157.96367042796084C393.6028447692035 151.96927418336352 406.3971552307965 151.96927418336352 416.78162442496455 157.96534859040338L601.2183895050948 264.4497900541308C611.6028586992628 270.44418629872814 618.0000139300594 281.5250929065322 618.0000139300594 293.51556355816945V506.4844464856244C618.0000139300594 518.4749171372616 611.6028586992628 529.5558237450657 601.2183895050948 535.5518981521054L416.78162442496455 642.0363396158328C406.3971552307965 648.0307358604302 393.6028447692035 648.0307358604302 383.21837557503545 642.0346614533904L198.78161049490518 535.550219989663C188.3971413007372 529.5558237450657 181.9999860699407 518.4749171372616 181.9999860699407 506.4844464856244V293.51556355816945C181.9999860699407 281.5250929065322 188.3971413007372 270.44418629872814 198.78161049490518 264.44811189168837L383.21837557503545 157.96367042796084Z " filter="url(#nnneon-filter)"></path><path d="M426.21837557503545 157.96367042796084C436.6028447692035 151.96927418336352 449.3971552307965 151.96927418336352 459.78162442496455 157.96534859040338L644.2183895050948 264.4497900541308C654.6028586992628 270.44418629872814 661.0000139300594 281.5250929065322 661.0000139300594 293.51556355816945V506.4844464856244C661.0000139300594 518.4749171372616 654.6028586992628 529.5558237450657 644.2183895050948 535.5518981521054L459.78162442496455 642.0363396158328C449.3971552307965 648.0307358604302 436.6028447692035 648.0307358604302 426.21837557503545 642.0346614533904L241.78161049490518 535.550219989663C231.3971413007372 529.5558237450657 224.9999860699407 518.4749171372616 224.9999860699407 506.4844464856244V293.51556355816945C224.9999860699407 281.5250929065322 231.3971413007372 270.44418629872814 241.78161049490518 264.44811189168837L426.21837557503545 157.96367042796084Z " filter="url(#nnneon-filter2)" opacity="0.25"></path><path d="M340.21837557503545 157.96367042796084C350.6028447692035 151.96927418336352 363.3971552307965 151.96927418336352 373.78162442496455 157.96534859040338L558.2183895050948 264.4497900541308C568.6028586992628 270.44418629872814 575.0000139300594 281.5250929065322 575.0000139300594 293.51556355816945V506.4844464856244C575.0000139300594 518.4749171372616 568.6028586992628 529.5558237450657 558.2183895050948 535.5518981521054L373.78162442496455 642.0363396158328C363.3971552307965 648.0307358604302 350.6028447692035 648.0307358604302 340.21837557503545 642.0346614533904L155.78161049490518 535.550219989663C145.3971413007372 529.5558237450657 138.9999860699407 518.4749171372616 138.9999860699407 506.4844464856244V293.51556355816945C138.9999860699407 281.5250929065322 145.3971413007372 270.44418629872814 155.78161049490518 264.44811189168837L340.21837557503545 157.96367042796084Z " filter="url(#nnneon-filter2)" opacity="0.25"></path><path d="M383.21837557503545 157.96367042796084C393.6028447692035 151.96927418336352 406.3971552307965 151.96927418336352 416.78162442496455 157.96534859040338L601.2183895050948 264.4497900541308C611.6028586992628 270.44418629872814 618.0000139300594 281.5250929065322 618.0000139300594 293.51556355816945V506.4844464856244C618.0000139300594 518.4749171372616 611.6028586992628 529.5558237450657 601.2183895050948 535.5518981521054L416.78162442496455 642.0363396158328C406.3971552307965 648.0307358604302 393.6028447692035 648.0307358604302 383.21837557503545 642.0346614533904L198.78161049490518 535.550219989663C188.3971413007372 529.5558237450657 181.9999860699407 518.4749171372616 181.9999860699407 506.4844464856244V293.51556355816945C181.9999860699407 281.5250929065322 188.3971413007372 270.44418629872814 198.78161049490518 264.44811189168837L383.21837557503545 157.96367042796084Z "></path></g></svg>